# 3ds Max Wavefront OBJ Exporter v0.97b - (c)2007 guruware
# File Created: 05.10.2015 22:19:10

mtllib Leval_1.mtl

#
# object Box001
#

v  -69.4062 0.0000 20.1952
v  69.8626 0.0000 20.1952
v  69.8626 10.7563 20.1952
v  -69.4062 10.7563 20.1952
v  69.8626 0.0000 -70.4505
v  69.8626 10.7563 -70.4505
v  -69.4062 0.0000 -70.4505
v  -69.4062 10.7563 -70.4505
v  -63.3854 0.0000 -64.4297
v  -63.3854 0.0000 14.1744
v  63.8418 0.0000 -64.4297
v  63.8418 0.0000 14.1744
v  63.8418 10.7563 14.1744
v  -63.3854 10.7563 14.1744
v  63.8418 10.7563 -64.4297
v  -63.3854 10.7563 -64.4297
# 16 vertices

vn 0.0000 0.0000 1.0000
vn 1.0000 0.0000 -0.0000
vn 0.0000 0.0000 -1.0000
vn -1.0000 0.0000 -0.0000
vn 0.0000 -1.0000 -0.0000
vn 0.0000 1.0000 -0.0000
# 6 vertex normals

vt 0.0000 0.0000 0.0000
vt 1.0000 0.0000 0.0000
vt 1.0000 1.0000 0.0000
vt 0.0000 1.0000 0.0000
# 4 texture coords

g Box001
usemtl 01___Default
s 1
f 1/1/1 2/2/1 3/3/1 4/4/1 
s 2
f 2/1/2 5/2/2 6/3/2 3/4/2 
s 1
f 5/1/3 7/2/3 8/3/3 6/4/3 
s 2
f 7/1/4 1/2/4 4/3/4 8/4/4 
s 4
f 1/2/5 7/1/5 9/3/5 10/2/5 
f 7/2/5 5/1/5 11/4/5 9/3/5 
f 5/2/5 2/1/5 12/1/5 11/4/5 
f 2/2/5 1/1/5 10/2/5 12/1/5 
f 4/4/6 3/3/6 13/2/6 14/1/6 
f 3/4/6 6/3/6 15/3/6 13/2/6 
f 6/4/6 8/3/6 16/4/6 15/3/6 
f 8/4/6 4/3/6 14/1/6 16/4/6 
s 1
f 10/2/2 9/3/2 16/4/2 14/1/2 
s 2
f 9/3/1 11/4/1 15/3/1 16/4/1 
s 1
f 11/4/4 12/1/4 13/2/4 15/3/4 
s 2
f 12/1/3 10/2/3 14/1/3 13/2/3 
# 16 polygons

#
# object Leval_1
#

v  -47.7492 -0.0000 -50.0000
v  -47.7492 0.0000 20.1952
v  -69.4062 0.0000 20.1952
v  -69.4062 0.0000 -50.0000
v  -47.7492 0.9019 20.1952
v  -69.4062 0.9019 20.1952
v  69.8626 0.0000 -50.0000
v  69.8626 0.9019 -50.0000
v  69.8626 0.9019 20.1952
v  69.8626 0.0000 20.1952
v  -47.7492 0.0000 -70.4505
v  -47.7492 0.9019 -70.4505
v  69.8626 0.9019 -70.4505
v  69.8626 0.0000 -70.4505
v  -69.4062 0.9019 -50.0000
v  -69.4062 0.9019 -70.4505
v  -69.4062 0.0000 -70.4505
v  -51.3940 -0.0000 -53.8352
v  -51.3940 0.9019 -53.8352
v  -50.4624 0.9019 -55.6636
v  -50.4624 -0.0000 -55.6636
v  -50.1414 0.9019 -57.6904
v  -50.1414 0.0000 -57.6904
v  -50.4624 -0.0000 -59.7173
v  -50.4624 0.9019 -59.7173
v  -51.3940 -0.0000 -61.5457
v  -51.3940 0.9019 -61.5457
v  -52.8451 -0.0000 -62.9967
v  -52.8451 0.9019 -62.9967
v  -54.6735 -0.0000 -63.9283
v  -54.6735 0.9019 -63.9283
v  -56.7003 -0.0000 -64.2494
v  -56.7003 0.9019 -64.2494
v  -58.7271 0.9019 -63.9283
v  -58.7271 -0.0000 -63.9283
v  -60.5555 -0.0000 -62.9967
v  -60.5555 0.9019 -62.9967
v  -62.0066 -0.0000 -61.5457
v  -62.0066 0.9019 -61.5457
v  -62.9382 -0.0000 -59.7173
v  -62.9382 0.9019 -59.7173
v  -63.2592 -0.0000 -57.6904
v  -63.2592 0.9019 -57.6904
v  -62.9382 -0.0000 -55.6636
v  -62.9382 0.9019 -55.6636
v  -62.0066 0.9019 -53.8352
v  -62.0066 -0.0000 -53.8352
v  -60.5555 0.9019 -52.3842
v  -60.5555 -0.0000 -52.3842
v  -58.7271 -0.0000 -51.4525
v  -58.7271 0.9019 -51.4525
v  -56.7003 -0.0000 -51.1315
v  -56.7003 0.9019 -51.1315
v  -54.6735 -0.0000 -51.4525
v  -54.6735 0.9019 -51.4525
v  -52.8450 0.9019 -52.3842
v  -52.8450 -0.0000 -52.3842
v  -47.7492 0.9019 -50.0000
# 58 vertices

vn -0.0000 -1.0000 -0.0000
vn 0.0000 -1.0000 0.0000
vn -0.0000 -1.0000 0.0000
vn 0.0000 0.0000 1.0000
vn 1.0000 0.0000 -0.0000
vn 0.0000 0.0000 -1.0000
vn -1.0000 0.0000 -0.0000
vn -0.8090 0.0000 -0.5878
vn -0.9511 0.0000 -0.3090
vn -0.9511 0.0000 0.3090
vn -0.8090 0.0000 0.5878
vn -0.5878 0.0000 0.8090
vn -0.3090 0.0000 0.9511
vn 0.3090 0.0000 0.9511
vn 0.5878 0.0000 0.8090
vn 0.8090 0.0000 0.5878
vn 0.9511 0.0000 0.3090
vn 0.9511 0.0000 -0.3090
vn 0.8090 0.0000 -0.5878
vn 0.5878 0.0000 -0.8090
vn 0.3090 0.0000 -0.9511
vn -0.0000 0.0000 -1.0000
vn -0.3090 0.0000 -0.9511
vn -0.5878 0.0000 -0.8090
vn 0.0000 -1.0000 -0.0000
vn 0.0000 1.0000 0.0000
vn 0.0000 1.0000 -0.0000
vn -0.0000 1.0000 -0.0000
vn -0.0000 1.0000 0.0000
# 29 vertex normals

vt 0.7995 0.7744 0.0000
vt 0.7889 0.0000 0.0000
vt 1.0000 0.0000 0.0000
vt 1.0000 0.7744 0.0000
vt 0.2111 0.0000 0.0000
vt 0.2111 1.0000 0.0000
vt 0.0000 1.0000 0.0000
vt 0.0000 0.0000 0.0000
vt 0.7744 0.0000 0.0000
vt 0.7744 1.0000 0.0000
vt 0.7889 1.0000 0.0000
vt 0.2256 0.0000 0.0000
vt 0.2256 1.0000 0.0000
vt 0.6500 0.0962 1.0000
vt 0.6500 0.1756 1.0000
vt 0.7000 0.1756 1.0000
vt 0.7000 0.0962 1.0000
vt 0.7500 0.1756 1.0000
vt 0.7500 0.0962 1.0000
vt 0.8000 0.0962 1.0000
vt 0.8000 0.1756 1.0000
vt 0.8500 0.0962 1.0000
vt 0.8500 0.1756 1.0000
vt 0.9000 0.0962 1.0000
vt 0.9000 0.1756 1.0000
vt 0.9500 0.0962 1.0000
vt 0.9500 0.1756 1.0000
vt 1.0000 0.0962 1.0000
vt 1.0000 0.1756 1.0000
vt 0.0000 0.1756 1.0000
vt 0.0500 0.1756 1.0000
vt 0.9233 0.9280 0.0000
vt 0.0000 0.0962 1.0000
vt 0.1000 0.0962 1.0000
vt 0.0500 0.0962 1.0000
vt 0.1000 0.1756 1.0000
vt 0.1500 0.0962 1.0000
vt 0.1500 0.1756 1.0000
vt 0.2000 0.0962 1.0000
vt 0.2000 0.1756 1.0000
vt 0.2500 0.0962 1.0000
vt 0.2500 0.1756 1.0000
vt 0.3000 0.0962 1.0000
vt 0.3000 0.1756 1.0000
vt 0.3500 0.1756 1.0000
vt 0.3500 0.0962 1.0000
vt 0.4000 0.1756 1.0000
vt 0.4000 0.0962 1.0000
vt 0.4500 0.0962 1.0000
vt 0.4500 0.1756 1.0000
vt 0.5000 0.0962 1.0000
vt 0.5000 0.1756 1.0000
vt 0.5500 0.0962 1.0000
vt 0.5500 0.1756 1.0000
vt 0.6000 0.1756 1.0000
vt 0.6000 0.0962 1.0000
vt 0.0000 0.7744 0.0000
vt 1.0000 1.0000 0.0000
vt 0.2111 0.7641 0.0000
vt 0.8707 0.8167 0.0000
vt 0.8640 0.8369 0.0000
vt 0.8617 0.8592 0.0000
vt 0.1058 0.7904 0.0000
vt 0.0912 0.7869 0.0000
vt 0.9469 0.9018 0.0000
vt 0.9536 0.8816 0.0000
vt 0.9364 0.9178 0.0000
vt 0.0636 0.9178 0.0000
vt 0.0767 0.9280 0.0000
vt 0.0531 0.9018 0.0000
vt 0.8942 0.9280 0.0000
vt 0.9088 0.9316 0.0000
vt 0.8811 0.9178 0.0000
vt 0.8707 0.9018 0.0000
vt 0.1293 0.9018 0.0000
vt 0.1360 0.8816 0.0000
vt 0.1189 0.9178 0.0000
vt 0.1058 0.9280 0.0000
vt 0.0464 0.8369 0.0000
vt 0.0441 0.8592 0.0000
vt 0.0531 0.8167 0.0000
vt 0.0636 0.8007 0.0000
vt 0.9364 0.8007 0.0000
vt 0.9233 0.7904 0.0000
vt 0.9469 0.8167 0.0000
vt 0.9536 0.8369 0.0000
vt 0.9559 0.8592 0.0000
vt 0.0464 0.8816 0.0000
vt 0.0767 0.7904 0.0000
vt 0.9088 0.7869 0.0000
vt 0.8942 0.7904 0.0000
vt 0.1383 0.8592 0.0000
vt 0.1360 0.8369 0.0000
vt 0.1293 0.8167 0.0000
vt 0.1189 0.8007 0.0000
vt 0.8811 0.8007 0.0000
vt 0.8640 0.8816 0.0000
vt 0.0912 0.9316 0.0000
# 98 texture coords

g Leval_1
usemtl 02___Default
s 2
f 17/5/7 18/6/8 19/7/9 20/8/9 
s 8
f 18/9/10 21/10/10 22/11/10 19/12/10 
s 16
f 23/13/11 24/14/11 25/11/11 26/12/11 
s 32
f 27/6/12 28/15/12 29/11/12 30/12/12 
s 64
f 20/16/13 31/17/13 32/11/13 33/12/13 
s 1
f 34/18/14 35/19/14 36/20/15 37/21/15 
f 37/21/15 36/20/15 38/22/13 39/23/13 
f 40/24/16 39/23/13 38/22/13 41/25/16 
f 42/26/17 40/24/16 41/25/16 43/27/17 
f 44/28/18 42/26/17 43/27/17 45/29/18 
f 46/30/19 44/28/18 45/29/18 47/31/19 
f 48/32/10 46/30/19 47/31/19 49/33/10 
f 49/34/10 50/35/20 51/36/20 48/37/10 
f 52/38/21 51/39/20 50/35/20 53/40/21 
f 54/41/22 52/38/21 53/40/21 55/42/22 
f 56/43/23 54/41/22 55/42/22 57/44/23 
f 58/45/11 56/43/23 57/44/23 59/46/11 
f 60/47/24 58/45/11 59/46/11 61/48/24 
f 61/48/24 62/49/25 63/50/25 
f 62/49/25 64/51/26 65/52/26 
f 66/53/27 65/52/26 64/51/26 67/54/27 
f 68/55/28 66/53/27 67/54/27 69/56/28 
f 70/57/29 68/55/28 69/56/28 71/58/29 
f 71/58/29 72/59/30 73/60/30 
f 72/59/30 35/19/14 34/18/14 
s 2
f 30/11/31 23/61/31 17/5/7 27/15/31 
f 17/5/7 23/61/31 26/12/8 18/6/8 
s 8
f 26/7/10 25/62/10 21/10/10 18/9/10 
s 32
f 33/7/12 32/62/12 28/15/12 27/6/12 
s 4
f 21/9/32 25/7/32 24/8/33 74/63/34 
s 16
f 30/7/11 29/62/11 24/14/11 23/13/11 
s 64
f 19/7/13 22/62/13 31/17/13 20/16/13 
s 4
f 22/12/35 21/9/32 74/63/34 31/61/34 
f 29/62/33 28/10/34 74/63/34 24/8/33 
s 2
f 17/5/7 34/64/31 37/65/31 39/66/7 
f 39/66/7 27/15/31 17/5/7 
s 4
f 74/63/34 71/67/34 69/68/34 31/61/34 
s 2
f 54/69/7 56/70/7 33/62/7 
f 52/71/7 54/69/7 33/62/7 
s 4
f 53/72/33 50/73/33 32/11/33 
f 55/74/33 53/72/33 32/11/33 
s 2
f 46/75/31 48/76/31 33/62/7 27/15/31 
f 44/77/31 46/75/31 27/15/31 
f 42/78/31 44/77/31 27/15/31 
s 4
f 43/79/33 41/80/33 28/10/34 
f 45/81/33 43/79/33 28/10/34 
f 47/82/33 45/81/33 28/10/34 
s 1
f 63/50/25 60/47/24 61/48/24 
f 65/52/26 63/50/25 62/49/25 
s 4
f 61/83/33 59/84/33 31/61/34 
f 62/85/33 61/83/33 31/61/34 
f 64/86/33 62/85/33 31/61/34 
s 2
f 65/87/9 66/88/9 20/8/9 
f 63/89/9 65/87/9 20/8/9 
f 60/90/9 63/89/9 20/8/9 
f 58/91/7 60/90/9 20/8/9 
s 4
f 59/84/33 57/92/33 32/11/33 31/61/34 
f 67/93/33 64/86/33 31/61/34 
s 2
f 66/88/9 68/94/9 20/8/9 
s 4
f 69/68/34 67/93/33 31/61/34 
s 2
f 68/94/9 70/95/31 17/5/7 20/8/9 
s 1
f 73/60/30 70/57/29 71/58/29 
f 34/18/14 73/60/30 72/59/30 
s 4
f 74/63/34 38/96/34 36/97/33 35/98/35 
f 74/63/34 35/98/35 72/99/34 
f 74/63/34 72/99/34 71/67/34 
s 2
f 73/100/31 34/64/31 17/5/7 
f 70/95/31 73/100/31 17/5/7 
f 40/101/8 42/78/31 27/15/31 
f 39/66/7 40/101/8 27/15/31 
s 4
f 41/80/33 38/96/34 28/10/34 
f 74/63/34 28/10/34 38/96/34 
f 50/73/33 49/102/33 32/11/33 
s 2
f 51/36/7 52/71/7 33/62/7 
f 48/76/31 51/36/7 33/62/7 
s 4
f 49/102/33 47/82/33 28/10/34 32/11/33 
s 2
f 56/70/7 58/91/7 20/8/9 33/62/7 
s 4
f 57/92/33 55/74/33 32/11/33 
# 38 polygons - 40 triangles

#
# object Leval_1_done_hole_box
#

v  -66.0635 -13.5195 -48.8727
v  -66.0635 -13.5195 -67.4077
v  -47.7790 -13.5195 -67.4077
v  -47.7790 -13.5195 -48.8727
v  -65.0635 -12.8232 -49.8727
v  -48.7790 -12.8232 -49.8727
v  -48.7790 -12.8232 -66.4077
v  -65.0635 -12.8232 -66.4077
v  -47.7790 0.1471 -48.8727
v  -66.0635 0.1471 -48.8727
v  -47.7790 0.1471 -67.4077
v  -66.0635 0.1471 -67.4077
v  -48.7790 0.1471 -49.8727
v  -65.0635 0.1471 -49.8727
v  -48.7790 0.1471 -66.4077
v  -65.0635 0.1471 -66.4077
# 16 vertices

vn 0.0000 -1.0000 -0.0000
vn 0.0000 1.0000 -0.0000
vn 0.0000 0.0000 1.0000
vn 1.0000 0.0000 -0.0000
vn 0.0000 0.0000 -1.0000
vn -1.0000 0.0000 -0.0000
# 6 vertex normals

vt 1.0000 0.0000 0.0000
vt 1.0000 1.0000 0.0000
vt 0.0000 1.0000 0.0000
vt 0.0000 0.0000 0.0000
# 4 texture coords

g Leval_1_done_hole_box
usemtl 01___Default
s 2
f 75/103/36 76/104/36 77/105/36 78/106/36 
s 4
f 79/106/37 80/103/37 81/104/37 82/105/37 
s 8
f 75/106/38 78/103/38 83/104/38 84/105/38 
s 16
f 78/106/39 77/103/39 85/104/39 83/105/39 
s 32
f 77/106/40 76/103/40 86/104/40 85/105/40 
s 64
f 76/106/41 75/103/41 84/104/41 86/105/41 
s off
f 84/105/37 83/104/37 87/103/37 88/106/37 
f 83/105/37 85/104/37 89/104/37 87/103/37 
f 85/105/37 86/104/37 90/105/37 89/104/37 
f 86/105/37 84/104/37 88/106/37 90/105/37 
f 88/106/40 87/103/40 80/103/40 79/106/40 
f 87/103/41 89/104/41 81/104/41 80/103/41 
f 89/104/38 90/105/38 82/105/38 81/104/38 
f 90/105/39 88/106/39 79/106/39 82/105/39 
# 14 polygons

